<?xml version="1.0" standalone="no"?>
<!DOCTYPE svg PUBLIC "-//W3C//DTD SVG 20010904//EN"
 "http://www.w3.org/TR/2001/REC-SVG-20010904/DTD/svg10.dtd">
<svg version="1.0" xmlns="http://www.w3.org/2000/svg"
 width="260.000000pt" height="260.000000pt" viewBox="0 0 260.000000 260.000000"
 preserveAspectRatio="xMidYMid meet">
<metadata>
Created by potrace 1.14, written by Peter Selinger 2001-2017
</metadata>
<g transform="translate(0.000000,260.000000) scale(0.100000,-0.100000)"
fill="#000000" stroke="none">
<path d="M0 1260 l0 -770 474 0 c541 0 551 1 663 84 129 95 195 225 195 387 0
95 -19 165 -66 242 l-35 58 30 46 c51 81 70 149 71 243 0 47 -5 106 -12 130
-31 116 -125 237 -230 294 -100 54 -116 56 -622 56 l-468 0 0 -770z m951 402
c27 -24 33 -37 37 -84 3 -38 -1 -64 -12 -86 -31 -60 -42 -62 -396 -62 l-320 0
0 130 0 130 330 0 330 0 31 -28z m-21 -587 c79 -41 84 -179 7 -229 -18 -12
-79 -16 -307 -20 -157 -2 -304 -2 -327 1 l-43 6 0 128 0 129 320 0 c267 0 326
-3 350 -15z"/>
<path d="M1300 2022 c0 -5 14 -21 31 -38 48 -46 98 -129 129 -212 l28 -77 314
-5 315 -5 42 -29 c63 -44 95 -105 95 -180 -1 -91 -45 -158 -129 -197 -36 -17
-71 -19 -369 -19 -308 0 -328 -1 -321 -17 69 -178 78 -281 39 -464 -6 -25 5
-32 218 -158 l223 -131 323 0 c177 0 322 2 322 4 0 2 -71 46 -158 96 -86 51
-245 145 -352 209 l-195 116 145 6 c167 6 240 25 338 88 267 173 336 516 157
786 -69 103 -203 196 -325 224 -54 12 -870 15 -870 3z"/>
</g>
</svg>
